<svg xmlns="http://www.w3.org/2000/svg" width="1000" height="1000" viewBox="0 0 1000 1000">
<g>
<path d="M 509.66 495.33 C505.35,500.10 501.27,504.00 500.59,504.00 C499.91,504.00 491.52,495.36 481.93,484.80 C472.34,474.24 457.08,457.52 448.00,447.66 C438.92,437.79 429.37,427.23 426.78,424.18 C424.55,421.57 423.23,420.05 422.83,418.32 C422.27,415.87 423.52,413.01 426.57,406.03 L 426.65 405.84 C428.49,401.62 430.00,397.91 430.00,397.59 C430.00,396.82 455.07,331.34 460.28,318.50 C464.26,308.69 466.94,301.63 480.38,265.50 C489.25,241.66 490.83,238.28 493.38,237.60 C497.25,236.56 507.59,236.98 509.28,238.25 C510.74,239.35 516.01,252.24 526.13,279.50 C527.76,283.90 530.41,290.88 532.02,295.00 C533.62,299.12 537.95,310.38 541.63,320.00 C545.31,329.62 553.02,349.65 558.76,364.50 C573.65,403.05 577.24,413.00 577.75,417.23 C578.18,420.78 577.77,421.43 569.35,430.24 C561.42,438.55 530.51,472.26 509.66,495.33 ZM 471.00 452.22 L 495.50 485.94 L 495.77 457.59 L 496.03 429.23 L 492.52 425.72 C489.61,422.81 489.00,421.47 489.00,418.00 C489.00,414.56 489.61,413.19 492.40,410.40 C495.26,407.54 496.51,407.00 500.32,407.00 C505.73,407.00 510.49,410.42 511.51,415.02 C512.37,418.94 510.45,424.50 507.43,426.88 L 505.00 428.79 L 505.00 457.45 C505.00,474.73 505.37,485.89 505.92,485.55 C506.43,485.23 510.40,479.92 514.73,473.74 C523.81,460.80 542.26,434.77 549.66,424.44 L 554.72 417.38 L 547.80 398.94 C544.00,388.80 539.97,377.91 538.85,374.75 C537.73,371.59 536.52,369.01 536.16,369.02 C535.80,369.03 527.62,373.10 518.00,378.07 L 500.50 387.10 L 482.89 378.05 C473.21,373.07 464.85,369.00 464.31,369.00 C463.77,369.00 462.85,370.46 462.26,372.25 C461.66,374.04 457.93,384.27 453.95,395.00 C449.98,405.73 446.68,415.40 446.62,416.50 C446.55,417.65 456.93,432.86 471.00,452.22 ZM 141.24 589.25 L 140.98 628.00 L 131.96 628.00 C125.66,628.00 122.79,627.62 122.46,626.75 C122.20,626.06 122.10,601.88 122.24,573.00 L 122.50 520.50 L 134.30 520.22 L 146.10 519.94 L 155.42 539.22 C160.54,549.82 167.43,564.12 170.74,571.00 L 176.74 583.50 L 187.35 561.50 C193.18,549.40 200.10,535.22 202.73,530.00 L 207.50 520.50 L 231.00 519.94 L 231.00 628.00 L 212.02 628.00 L 211.76 588.76 L 211.50 549.52 L 206.02 561.01 C203.01,567.33 196.71,580.15 192.02,589.50 L 183.50 606.50 L 179.00 607.01 L 178.71 607.05 C175.62,607.40 173.61,607.63 171.92,607.00 C168.75,605.82 166.70,601.61 160.68,589.50 C156.04,580.15 149.82,567.55 146.87,561.50 L 141.50 550.50 ZM 853.14 627.00 C845.75,629.33 830.94,629.64 824.50,627.60 C809.37,622.80 800.11,611.32 797.74,594.43 C796.32,584.34 797.85,575.60 802.71,566.03 C808.82,554.00 818.16,548.32 833.55,547.28 C843.22,546.63 850.40,548.41 857.62,553.24 C866.86,559.42 872.00,571.28 872.00,586.45 L 872.00 593.00 L 815.96 593.00 L 816.59 595.75 C817.53,599.90 820.87,606.17 823.75,609.23 C830.87,616.76 850.54,616.14 863.39,607.98 C866.34,606.10 868.63,605.23 869.19,605.79 C869.69,606.29 869.97,609.58 869.80,613.10 L 869.50 619.50 L 864.50 622.25 C861.75,623.76 856.64,625.89 853.14,627.00 ZM 285.00 626.32 C280.12,628.53 266.49,629.60 261.99,628.12 C251.75,624.77 246.00,617.45 246.00,607.78 C246.00,597.96 250.30,590.71 258.81,586.19 C265.32,582.74 272.30,581.25 286.36,580.33 L 296.23 579.68 L 295.61 575.16 C294.29,565.52 289.41,562.54 275.97,563.19 C268.37,563.55 266.63,564.02 260.67,567.30 C256.96,569.33 253.72,571.00 253.47,571.00 C253.21,571.00 253.00,567.62 253.00,563.49 C253.00,556.08 253.05,555.94 256.25,553.98 C264.43,548.96 269.98,547.58 282.00,547.57 C291.53,547.57 294.28,547.92 298.07,549.65 C303.69,552.20 308.50,557.04 311.35,563.00 C313.38,567.25 313.52,569.20 313.82,597.75 L 314.13 628.00 L 296.00 628.00 L 296.00 623.50 C296.00,621.03 295.80,619.00 295.55,619.00 C295.30,619.00 293.84,620.19 292.30,621.64 C290.76,623.09 287.48,625.20 285.00,626.32 ZM 406.00 608.50 L 406.00 628.00 L 387.00 628.00 L 387.00 515.92 L 405.50 516.50 L 406.50 581.21 L 437.18 549.00 L 460.48 549.00 L 443.74 565.76 C434.53,574.98 427.00,582.86 427.00,583.27 C427.00,583.69 429.10,586.61 431.66,589.76 C435.91,595.00 458.33,622.11 461.83,626.25 C463.23,627.90 462.64,628.00 451.40,627.96 L 439.50 627.92 L 423.50 608.50 C414.70,597.83 407.16,589.07 406.75,589.05 C406.34,589.02 406.00,597.78 406.00,608.50 ZM 697.26 627.43 C691.91,629.25 682.83,629.37 678.50,627.67 C669.89,624.29 665.33,620.15 661.80,612.50 C659.59,607.70 659.49,606.31 659.17,578.25 L 658.84 549.00 L 678.91 549.00 L 679.20 575.93 C679.48,601.32 679.62,603.02 681.56,605.62 C685.22,610.51 688.76,612.51 693.45,612.33 C699.74,612.09 705.07,608.98 708.01,603.85 C710.46,599.58 710.51,599.06 710.81,574.25 L 711.12 549.00 L 730.00 549.00 L 730.00 628.00 L 712.00 628.00 L 712.00 622.50 C712.00,619.47 711.86,617.00 711.69,617.00 C711.52,617.00 709.25,618.99 706.63,621.43 C704.02,623.86 699.80,626.56 697.26,627.43 ZM 511.59 626.22 C506.13,629.04 494.25,629.60 488.09,627.34 C482.91,625.44 476.28,619.16 473.48,613.50 C471.66,609.83 471.47,607.01 471.18,579.25 L 470.87 549.00 L 490.00 549.00 L 490.01 573.25 C490.01,586.84 490.46,599.13 491.04,601.22 C493.36,609.56 500.92,614.18 508.78,612.06 C512.99,610.93 519.31,605.02 520.94,600.68 C521.58,598.98 522.00,588.20 522.00,573.43 L 522.00 549.00 L 541.00 549.00 L 541.00 628.00 L 524.26 628.00 L 523.61 623.15 C523.26,620.49 522.71,618.04 522.39,617.72 C522.07,617.41 520.43,618.71 518.75,620.63 C517.07,622.55 513.85,625.07 511.59,626.22 ZM 642.75 626.99 C640.96,627.63 635.90,628.40 631.50,628.68 C624.08,629.16 623.10,628.99 618.01,626.30 C613.37,623.85 612.05,622.49 609.51,617.52 L 606.50 611.64 L 606.15 588.37 L 605.79 565.09 L 600.15 564.80 L 594.50 564.50 L 593.92 549.00 L 599.40 549.00 C602.41,549.00 605.18,548.51 605.55,547.91 C605.92,547.31 606.21,543.04 606.18,538.41 L 606.13 530.00 L 624.92 530.00 L 625.50 548.50 L 635.79 548.79 L 646.08 549.07 L 645.79 556.79 L 645.50 564.50 L 624.86 565.07 L 625.50 607.17 L 628.89 610.20 C632.41,613.34 634.37,613.51 643.25,611.41 L 646.00 610.77 L 646.00 625.80 ZM 495.00 360.13 C497.48,362.25 499.87,363.99 500.32,363.99 C500.77,364.00 503.25,362.25 505.82,360.11 C511.01,355.79 519.93,351.00 522.78,351.00 C523.79,351.00 525.44,350.40 526.44,349.66 C528.20,348.38 528.20,348.12 526.51,342.91 C520.04,322.97 502.08,278.08 500.51,277.91 C499.96,277.85 497.81,282.01 495.71,287.15 C487.96,306.21 473.00,347.03 473.00,349.14 C473.00,349.56 474.69,350.22 476.75,350.59 C481.96,351.54 489.67,355.57 495.00,360.13 ZM 577.76 572.25 L 578.02 628.00 L 559.00 628.00 L 559.00 515.92 L 577.50 516.50 ZM 350.00 602.25 L 350.00 628.00 L 340.67 628.00 C335.53,628.00 331.03,627.70 330.67,627.33 C330.30,626.97 330.00,609.19 330.00,587.83 L 330.00 549.00 L 338.88 549.00 C348.56,549.00 348.95,549.27 348.99,555.95 C349.00,558.35 349.09,558.32 352.75,554.76 C357.32,550.31 364.24,547.05 369.17,547.02 C375.84,546.98 376.00,547.23 376.00,557.36 L 376.00 566.50 L 367.71 566.50 C358.38,566.50 355.29,567.84 351.96,573.30 C350.16,576.25 350.01,578.49 350.00,602.25 ZM 766.00 603.70 L 766.00 628.00 L 747.00 628.00 L 747.00 549.00 L 756.00 549.00 C764.85,549.00 765.00,549.04 765.00,551.42 C765.00,556.90 765.89,557.13 771.14,552.99 C776.12,549.05 781.22,547.02 786.17,547.01 C791.74,546.99 792.00,547.47 792.00,557.51 L 792.00 566.81 L 786.01 566.27 C776.80,565.43 771.82,567.71 768.56,574.26 C766.02,579.34 766.00,579.63 766.00,603.70 ZM 523.50 684.74 L 522.50 715.50 L 516.00 716.13 L 516.00 674.00 L 519.93 674.00 C523.79,674.00 523.95,674.16 530.22,683.75 C533.73,689.11 538.15,696.07 540.05,699.22 C541.95,702.37 543.72,704.96 544.00,704.97 C544.28,704.99 544.37,698.03 544.20,689.50 L 543.90 674.00 L 551.00 674.00 L 551.00 716.00 L 547.25 715.99 C546.97,715.99 546.72,715.99 546.48,716.00 C545.98,716.01 545.57,716.03 545.17,715.95 C542.97,715.55 541.24,712.56 528.85,693.12 ZM 423.26 715.00 C416.21,718.78 404.76,716.81 399.30,710.87 C395.80,707.06 394.00,701.57 394.03,694.78 C394.07,686.32 397.04,680.50 403.32,676.61 C407.32,674.13 408.97,673.73 414.94,673.76 C420.14,673.80 422.85,674.35 425.71,675.96 C430.11,678.43 434.50,684.25 433.65,686.48 C432.69,688.98 428.51,688.32 426.95,685.41 C425.03,681.83 421.00,680.00 415.00,680.00 C408.16,680.00 404.28,682.18 401.94,687.32 C399.53,692.64 399.53,697.38 401.96,702.73 C404.44,708.19 408.98,710.99 415.35,711.00 C419.53,711.00 420.67,710.53 423.60,707.60 C428.67,702.53 428.18,701.00 421.50,701.00 C416.06,701.00 416.00,700.97 416.00,698.00 L 416.00 695.00 L 434.00 695.00 L 434.00 716.00 L 431.00 716.00 C428.00,712.58 427.73,712.60 423.26,715.00 ZM 342.00 711.00 C340.51,714.85 339.80,715.55 337.13,715.81 C335.41,715.99 334.00,715.92 334.00,715.66 C334.00,715.23 346.86,679.85 348.51,675.75 C349.03,674.47 350.35,674.00 353.44,674.00 L 357.66 674.00 L 362.48 687.25 C365.13,694.54 367.91,701.86 368.65,703.51 C369.40,705.17 370.41,707.87 370.90,709.51 C371.39,711.16 372.11,713.29 372.50,714.25 C373.10,715.72 372.65,716.00 369.69,716.00 C366.34,716.00 366.08,715.74 364.49,710.96 L 362.82 705.93 L 353.29 706.21 L 343.75 706.50 ZM 609.56 713.52 C606.69,715.71 604.59,716.36 599.23,716.73 C593.25,717.14 591.89,716.87 587.03,714.31 C582.56,711.95 581.05,710.44 578.70,705.97 C576.25,701.32 575.88,699.60 576.20,694.48 C576.87,683.43 582.99,675.90 592.80,674.04 C602.61,672.18 611.80,675.85 615.57,683.13 C617.00,685.90 616.95,686.06 614.53,687.17 C612.21,688.23 611.67,687.97 608.15,684.16 C604.42,680.13 604.12,680.00 598.00,680.00 C592.82,680.00 591.11,680.44 588.43,682.49 C584.37,685.58 582.64,690.61 583.22,697.62 C583.91,706.01 589.66,711.00 598.63,711.00 C602.95,711.00 603.72,710.61 607.55,706.50 C610.47,703.37 612.54,702.00 614.37,702.00 C615.82,702.00 617.00,702.56 617.00,703.25 C616.99,705.53 613.22,710.73 609.56,713.52 ZM 490.00 713.53 L 490.00 716.00 L 461.00 716.00 L 461.00 674.00 L 490.13 674.00 L 489.82 676.75 L 489.50 679.50 L 466.90 680.07 L 467.50 691.50 L 478.31 691.78 L 489.13 692.07 L 488.81 694.78 L 488.50 697.50 L 477.70 697.78 L 466.91 698.07 L 467.20 704.28 L 467.50 710.50 L 478.75 710.78 C489.97,711.06 490.00,711.07 490.00,713.53 ZM 267.40 611.60 C270.46,614.66 271.36,615.00 276.45,615.00 C284.25,615.00 290.58,611.64 293.53,605.94 C294.26,604.53 295.18,600.52 295.58,597.03 L 296.29 590.68 L 287.40 591.31 C275.76,592.12 271.31,593.49 267.30,597.50 C262.67,602.13 262.71,606.91 267.40,611.60 ZM 821.25 579.19 C823.59,579.36 831.80,579.43 839.50,579.33 L 853.50 579.17 L 853.30 576.52 C853.01,572.57 849.87,566.90 846.68,564.57 C842.62,561.60 829.91,561.13 825.00,563.77 C821.30,565.76 817.00,572.68 817.00,576.65 C817.00,578.56 817.61,578.93 821.25,579.19 ZM 657.00 698.08 L 657.00 716.00 L 651.00 716.00 L 651.00 707.30 C651.00,699.83 650.67,698.11 648.63,695.05 C647.33,693.10 643.74,687.56 640.66,682.75 L 635.04 674.00 L 638.92 674.00 C642.68,674.00 642.95,674.24 648.28,682.46 C651.29,687.11 652.67,689.55 654.09,689.57 C655.47,689.59 656.87,687.32 659.83,682.57 C660.18,682.00 660.56,681.39 660.96,680.75 C664.83,674.56 665.46,674.00 668.59,674.00 C670.47,674.00 672.00,674.22 672.00,674.49 C672.00,674.76 668.62,680.18 664.50,686.53 ZM 346.00 699.75 C346.00,699.89 349.15,700.00 353.00,700.00 C356.85,700.00 360.00,699.58 360.00,699.06 C360.00,697.45 354.83,683.57 353.71,682.19 C352.91,681.20 351.83,683.18 349.33,690.19 C347.50,695.31 346.00,699.61 346.00,699.75 Z" fill="rgb(18,20,19)"/>
<path d="M 0.00 500.00 L 0.00 0.00 L 500.00 0.00 L 1000.00 0.00 L 1000.00 500.00 L 1000.00 1000.00 L 500.00 1000.00 L 0.00 1000.00 L 0.00 500.00 ZM 423.26 715.00 C427.73,712.60 428.00,712.58 428.00,714.50 C428.00,715.50 429.00,716.00 431.00,716.00 L 434.00 716.00 L 434.00 705.50 L 434.00 695.00 L 425.00 695.00 L 416.00 695.00 L 416.00 698.00 C416.00,700.97 416.06,701.00 421.50,701.00 C428.18,701.00 428.67,702.53 423.60,707.60 C420.67,710.53 419.53,711.00 415.35,711.00 C408.98,710.99 404.44,708.19 401.96,702.73 C399.53,697.38 399.53,692.64 401.94,687.32 C404.28,682.18 408.16,680.00 415.00,680.00 C421.00,680.00 425.03,681.83 426.95,685.41 C428.51,688.32 432.69,688.98 433.65,686.48 C434.50,684.25 430.11,678.43 425.71,675.96 C422.85,674.35 420.14,673.80 414.94,673.76 C408.97,673.73 407.32,674.13 403.32,676.61 C397.04,680.50 394.07,686.32 394.03,694.78 C394.00,701.57 395.80,707.06 399.30,710.87 C404.76,716.81 416.21,718.78 423.26,715.00 ZM 609.56 713.52 C613.22,710.73 616.99,705.53 617.00,703.25 C617.00,702.56 615.82,702.00 614.37,702.00 C612.54,702.00 610.47,703.37 607.55,706.50 C603.72,710.61 602.95,711.00 598.63,711.00 C589.66,711.00 583.91,706.01 583.22,697.62 C582.64,690.61 584.37,685.58 588.43,682.49 C591.11,680.44 592.82,680.00 598.00,680.00 C604.12,680.00 604.42,680.13 608.15,684.16 C611.67,687.97 612.21,688.23 614.53,687.17 C616.95,686.06 617.00,685.90 615.57,683.13 C611.80,675.85 602.61,672.18 592.80,674.04 C582.99,675.90 576.87,683.43 576.20,694.48 C575.88,699.60 576.25,701.32 578.70,705.97 C581.05,710.44 582.56,711.95 587.03,714.31 C591.89,716.87 593.25,717.14 599.23,716.73 C604.59,716.36 606.69,715.71 609.56,713.52 ZM 342.00 711.00 L 343.75 706.50 L 353.29 706.21 L 362.82 705.93 L 364.49 710.96 C366.08,715.74 366.34,716.00 369.69,716.00 C372.65,716.00 373.10,715.72 372.50,714.25 C372.11,713.29 371.39,711.16 370.90,709.51 C370.41,707.87 369.40,705.17 368.65,703.51 C367.91,701.86 365.13,694.54 362.48,687.25 L 357.66 674.00 L 353.44 674.00 C350.35,674.00 349.03,674.47 348.51,675.75 C346.86,679.85 334.00,715.23 334.00,715.66 C334.00,715.92 335.41,715.99 337.13,715.81 C339.80,715.55 340.51,714.85 342.00,711.00 ZM 490.00 713.53 C490.00,711.07 489.97,711.06 478.75,710.78 L 467.50 710.50 L 467.20 704.28 L 466.91 698.07 L 477.70 697.78 L 488.50 697.50 L 488.81 694.78 L 489.13 692.07 L 478.31 691.78 L 467.50 691.50 L 467.20 685.78 L 466.90 680.07 L 478.20 679.78 L 489.50 679.50 L 489.82 676.75 L 490.13 674.00 L 475.57 674.00 L 461.00 674.00 L 461.00 695.00 L 461.00 716.00 L 475.50 716.00 L 490.00 716.00 L 490.00 713.53 ZM 523.00 700.12 L 523.50 684.74 L 528.85 693.12 C544.56,717.76 543.13,715.97 547.25,715.99 L 551.00 716.00 L 551.00 695.00 L 551.00 674.00 L 547.45 674.00 L 543.90 674.00 L 544.20 689.50 C544.37,698.03 544.28,704.99 544.00,704.97 C543.72,704.96 541.95,702.37 540.05,699.22 C538.15,696.07 533.73,689.11 530.22,683.75 C523.95,674.16 523.79,674.00 519.93,674.00 L 516.00 674.00 L 516.00 695.06 L 516.00 716.13 L 519.25 715.81 L 522.50 715.50 L 523.00 700.12 ZM 657.00 707.04 L 657.00 698.08 L 664.50 686.53 C668.62,680.18 672.00,674.76 672.00,674.49 C672.00,674.22 670.47,674.00 668.59,674.00 C665.46,674.00 664.83,674.56 660.96,680.75 C653.76,692.27 654.56,692.16 648.28,682.46 C642.95,674.24 642.68,674.00 638.92,674.00 L 635.04 674.00 L 640.66 682.75 C643.74,687.56 647.33,693.10 648.63,695.05 C650.67,698.11 651.00,699.83 651.00,707.30 L 651.00 716.00 L 654.00 716.00 L 657.00 716.00 L 657.00 707.04 ZM 285.00 626.32 C287.48,625.20 290.76,623.09 292.30,621.64 C293.84,620.19 295.30,619.00 295.55,619.00 C295.80,619.00 296.00,621.03 296.00,623.50 L 296.00 628.00 L 305.07 628.00 L 314.13 628.00 L 313.82 597.75 C313.52,569.20 313.38,567.25 311.35,563.00 C308.50,557.04 303.69,552.20 298.07,549.65 C294.28,547.92 291.53,547.57 282.00,547.57 C269.98,547.58 264.43,548.96 256.25,553.98 C253.05,555.94 253.00,556.08 253.00,563.49 C253.00,567.62 253.21,571.00 253.47,571.00 C253.72,571.00 256.96,569.33 260.67,567.30 C266.63,564.02 268.37,563.55 275.97,563.19 C289.41,562.54 294.29,565.52 295.61,575.16 L 296.23 579.68 L 286.36 580.33 C272.30,581.25 265.32,582.74 258.81,586.19 C250.30,590.71 246.00,597.96 246.00,607.78 C246.00,617.45 251.75,624.77 261.99,628.12 C266.49,629.60 280.12,628.53 285.00,626.32 ZM 511.59 626.22 C513.85,625.07 517.07,622.55 518.75,620.63 C520.43,618.71 522.07,617.41 522.39,617.72 C522.71,618.04 523.26,620.49 523.61,623.15 L 524.26 628.00 L 532.63 628.00 L 541.00 628.00 L 541.00 588.50 L 541.00 549.00 L 531.50 549.00 L 522.00 549.00 L 522.00 573.43 C522.00,588.20 521.58,598.98 520.94,600.68 C519.31,605.02 512.99,610.93 508.78,612.06 C500.92,614.18 493.36,609.56 491.04,601.22 C490.46,599.13 490.01,586.84 490.01,573.25 L 490.00 549.00 L 480.43 549.00 L 470.87 549.00 L 471.18 579.25 C471.47,607.01 471.66,609.83 473.48,613.50 C476.28,619.16 482.91,625.44 488.09,627.34 C494.25,629.60 506.13,629.04 511.59,626.22 ZM 642.75 626.99 L 646.00 625.80 L 646.00 618.29 L 646.00 610.77 L 643.25 611.41 C634.37,613.51 632.41,613.34 628.89,610.20 L 625.50 607.17 L 625.18 586.12 L 624.86 565.07 L 635.18 564.79 L 645.50 564.50 L 645.79 556.79 L 646.08 549.07 L 635.79 548.79 L 625.50 548.50 L 625.21 539.25 L 624.92 530.00 L 615.53 530.00 L 606.13 530.00 L 606.18 538.41 C606.21,543.04 605.92,547.31 605.55,547.91 C605.18,548.51 602.41,549.00 599.40,549.00 L 593.92 549.00 L 594.21 556.75 L 594.50 564.50 L 600.15 564.80 L 605.79 565.09 L 606.15 588.37 L 606.50 611.64 L 609.51 617.52 C612.05,622.49 613.37,623.85 618.01,626.30 C623.10,628.99 624.08,629.16 631.50,628.68 C635.90,628.40 640.96,627.63 642.75,626.99 ZM 697.26 627.43 C699.80,626.56 704.02,623.86 706.63,621.43 C709.25,618.99 711.52,617.00 711.69,617.00 C711.86,617.00 712.00,619.47 712.00,622.50 L 712.00 628.00 L 721.00 628.00 L 730.00 628.00 L 730.00 588.50 L 730.00 549.00 L 720.56 549.00 L 711.12 549.00 L 710.81 574.25 C710.51,599.06 710.46,599.58 708.01,603.85 C705.07,608.98 699.74,612.09 693.45,612.33 C688.76,612.51 685.22,610.51 681.56,605.62 C679.62,603.02 679.48,601.32 679.20,575.93 L 678.91 549.00 L 668.87 549.00 L 658.84 549.00 L 659.17 578.25 C659.49,606.31 659.59,607.70 661.80,612.50 C665.33,620.15 669.89,624.29 678.50,627.67 C682.83,629.37 691.91,629.25 697.26,627.43 ZM 853.14 627.00 C856.64,625.89 861.75,623.76 864.50,622.25 L 869.50 619.50 L 869.80 613.10 C869.97,609.58 869.69,606.29 869.19,605.79 C868.63,605.23 866.34,606.10 863.39,607.98 C850.54,616.14 830.87,616.76 823.75,609.23 C820.87,606.17 817.53,599.90 816.59,595.75 L 815.96 593.00 L 843.98 593.00 L 872.00 593.00 L 872.00 586.45 C872.00,571.28 866.86,559.42 857.62,553.24 C850.40,548.41 843.22,546.63 833.55,547.28 C818.16,548.32 808.82,554.00 802.71,566.03 C797.85,575.60 796.32,584.34 797.74,594.43 C800.11,611.32 809.37,622.80 824.50,627.60 C830.94,629.64 845.75,629.33 853.14,627.00 ZM 141.24 589.25 L 141.50 550.50 L 146.87 561.50 C149.82,567.55 156.04,580.15 160.68,589.50 C170.00,608.26 169.80,608.06 179.00,607.01 L 183.50 606.50 L 192.02 589.50 C196.71,580.15 203.01,567.33 206.02,561.01 L 211.50 549.52 L 211.76 588.76 L 212.02 628.00 L 221.51 628.00 L 231.00 628.00 L 231.00 573.97 L 231.00 519.94 L 219.25 520.22 L 207.50 520.50 L 202.73 530.00 C200.10,535.22 193.18,549.40 187.35,561.50 L 176.74 583.50 L 170.74 571.00 C167.43,564.12 160.54,549.82 155.42,539.22 L 146.10 519.94 L 134.30 520.22 L 122.50 520.50 L 122.24 573.00 C122.10,601.88 122.20,626.06 122.46,626.75 C122.79,627.62 125.66,628.00 131.96,628.00 L 140.98 628.00 L 141.24 589.25 ZM 350.00 602.25 C350.01,578.49 350.16,576.25 351.96,573.30 C355.29,567.84 358.38,566.50 367.71,566.50 L 376.00 566.50 L 376.00 557.36 C376.00,547.23 375.84,546.98 369.17,547.02 C364.24,547.05 357.32,550.31 352.75,554.76 C349.09,558.32 349.00,558.35 348.99,555.95 C348.95,549.27 348.56,549.00 338.88,549.00 L 330.00 549.00 L 330.00 587.83 C330.00,609.19 330.30,626.97 330.67,627.33 C331.03,627.70 335.53,628.00 340.67,628.00 L 350.00 628.00 L 350.00 602.25 ZM 406.00 608.50 C406.00,597.78 406.34,589.02 406.75,589.05 C407.16,589.07 414.70,597.83 423.50,608.50 L 439.50 627.92 L 451.40 627.96 C462.64,628.00 463.23,627.90 461.83,626.25 C458.33,622.11 435.91,595.00 431.66,589.76 C429.10,586.61 427.00,583.69 427.00,583.27 C427.00,582.86 434.53,574.98 443.74,565.76 L 460.48 549.00 L 448.83 549.00 L 437.18 549.00 L 421.84 565.10 L 406.50 581.21 L 406.00 548.85 L 405.50 516.50 L 396.25 516.21 L 387.00 515.92 L 387.00 571.96 L 387.00 628.00 L 396.50 628.00 L 406.00 628.00 L 406.00 608.50 ZM 577.76 572.25 L 577.50 516.50 L 568.25 516.21 L 559.00 515.92 L 559.00 571.96 L 559.00 628.00 L 568.51 628.00 L 578.02 628.00 L 577.76 572.25 ZM 766.00 603.70 C766.00,579.63 766.02,579.34 768.56,574.26 C771.82,567.71 776.80,565.43 786.01,566.27 L 792.00 566.81 L 792.00 557.51 C792.00,547.47 791.74,546.99 786.17,547.01 C781.22,547.02 776.12,549.05 771.14,552.99 C765.89,557.13 765.00,556.90 765.00,551.42 C765.00,549.04 764.85,549.00 756.00,549.00 L 747.00 549.00 L 747.00 588.50 L 747.00 628.00 L 756.50 628.00 L 766.00 628.00 L 766.00 603.70 ZM 509.66 495.33 C530.51,472.26 561.42,438.55 569.35,430.24 C577.77,421.43 578.18,420.78 577.75,417.23 C577.24,413.00 573.65,403.05 558.76,364.50 C553.02,349.65 545.31,329.62 541.63,320.00 C537.95,310.38 533.62,299.12 532.02,295.00 C530.41,290.88 527.76,283.90 526.13,279.50 C516.01,252.24 510.74,239.35 509.28,238.25 C507.59,236.98 497.25,236.56 493.38,237.60 C490.83,238.28 489.25,241.66 480.38,265.50 C466.94,301.63 464.26,308.69 460.28,318.50 C455.07,331.34 430.00,396.82 430.00,397.59 C430.00,397.91 428.49,401.62 426.65,405.84 C421.36,417.94 421.36,417.84 426.78,424.18 C429.37,427.23 438.92,437.79 448.00,447.66 C457.08,457.52 472.34,474.24 481.93,484.80 C491.52,495.36 499.91,504.00 500.59,504.00 C501.27,504.00 505.35,500.10 509.66,495.33 ZM 346.00 699.75 C346.00,699.61 347.50,695.31 349.33,690.19 C351.83,683.18 352.91,681.20 353.71,682.19 C354.83,683.57 360.00,697.45 360.00,699.06 C360.00,699.58 356.85,700.00 353.00,700.00 C349.15,700.00 346.00,699.89 346.00,699.75 ZM 267.40 611.60 C262.71,606.91 262.67,602.13 267.30,597.50 C271.31,593.49 275.76,592.12 287.40,591.31 L 296.29 590.68 L 295.58 597.03 C295.18,600.52 294.26,604.53 293.53,605.94 C290.58,611.64 284.25,615.00 276.45,615.00 C271.36,615.00 270.46,614.66 267.40,611.60 ZM 821.25 579.19 C817.61,578.93 817.00,578.56 817.00,576.65 C817.00,572.68 821.30,565.76 825.00,563.77 C829.91,561.13 842.62,561.60 846.68,564.57 C849.87,566.90 853.01,572.57 853.30,576.52 L 853.50 579.17 L 839.50 579.33 C831.80,579.43 823.59,579.36 821.25,579.19 ZM 471.00 452.22 C456.93,432.86 446.55,417.65 446.62,416.50 C446.68,415.40 449.98,405.73 453.95,395.00 C457.93,384.27 461.66,374.04 462.26,372.25 C462.85,370.46 463.77,369.00 464.31,369.00 C464.85,369.00 473.21,373.07 482.89,378.05 L 500.50 387.10 L 518.00 378.07 C527.62,373.10 535.80,369.03 536.16,369.02 C536.52,369.01 537.73,371.59 538.85,374.75 C539.97,377.91 544.00,388.80 547.80,398.94 L 554.72 417.38 L 549.66 424.44 C542.26,434.77 523.81,460.80 514.73,473.74 C510.40,479.92 506.43,485.23 505.92,485.55 C505.37,485.89 505.00,474.73 505.00,457.45 L 505.00 428.79 L 507.43 426.88 C510.45,424.50 512.37,418.94 511.51,415.02 C510.49,410.42 505.73,407.00 500.32,407.00 C496.51,407.00 495.26,407.54 492.40,410.40 C489.61,413.19 489.00,414.56 489.00,418.00 C489.00,421.47 489.61,422.81 492.52,425.72 L 496.03 429.23 L 495.77 457.59 L 495.50 485.94 L 471.00 452.22 ZM 495.00 360.13 C489.67,355.57 481.96,351.54 476.75,350.59 C474.69,350.22 473.00,349.56 473.00,349.14 C473.00,347.03 487.96,306.21 495.71,287.15 C497.81,282.01 499.96,277.85 500.51,277.91 C502.08,278.08 520.04,322.97 526.51,342.91 C528.20,348.12 528.20,348.38 526.44,349.66 C525.44,350.40 523.79,351.00 522.78,351.00 C519.93,351.00 511.01,355.79 505.82,360.11 C503.25,362.25 500.77,364.00 500.32,363.99 C499.87,363.99 497.48,362.25 495.00,360.13 Z" fill="rgb(254,254,254)"/>
</g>
</svg>